<!-- Generator: Adobe Illustrator 18.0.0, SVG Export Plug-In  -->
<svg version="1.1"
	 xmlns="http://www.w3.org/2000/svg" xmlns:xlink="http://www.w3.org/1999/xlink" xmlns:a="http://ns.adobe.com/AdobeSVGViewerExtensions/3.0/"
	 x="0px" y="0px" width="48px" height="48px" viewBox="0 0 48 48" enable-background="new 0 0 48 48" xml:space="preserve">
<defs>
</defs>
<g>
	<path fill="#D1D0D0" d="M48,24c0,13.3-10.7,24-24,24C10.7,48,0,37.3,0,24C0,10.7,10.7,0,24,0C37.3,0,48,10.7,48,24z"/>
	<g>
		<path fill="#FFFFFF" d="M17.4,38.8c0,0.2,0.3,0.3,0.4,0.1c0.2-0.2,2.4-2.9,3.1-5.6c0.2-0.8,1.2-4.7,1.2-4.7
			c0.6,1.1,2.3,2.1,4.2,2.1c5.5,0,9.3-5,9.3-11.8c0-5.1-4.3-9.9-10.9-9.9c-8.2,0-12.3,5.9-12.3,10.8c0,3,1.1,5.6,3.5,6.6
			c0.4,0.2,0.7,0,0.9-0.4c0.1-0.3,0.3-1.1,0.4-1.4c0.1-0.4,0.1-0.6-0.2-1c-0.7-0.8-1.1-1.9-1.1-3.4c0-4.4,3.3-8.3,8.5-8.3
			c4.6,0,7.2,2.8,7.2,6.6c0,5-2.2,9.2-5.5,9.2c-1.8,0-3.2-1.5-2.7-3.3c0.5-2.2,1.5-4.5,1.5-6.1c0-1.4-0.8-2.6-2.3-2.6
			c-1.8,0-3.3,1.9-3.3,4.5c0,1.6,0.5,2.7,0.5,2.7s-1.9,8-2.2,9.4C16.8,35.1,17.3,38.5,17.4,38.8z"/>
	</g>
</g>
</svg>
