<?xml version="1.0" encoding="UTF-8" standalone="no"?>
<svg width="51px" height="33px" viewBox="0 0 51 33" version="1.1" xmlns="http://www.w3.org/2000/svg" xmlns:xlink="http://www.w3.org/1999/xlink" xmlns:sketch="http://www.bohemiancoding.com/sketch/ns">
    <!-- Generator: Sketch 3.3.3 (12081) - http://www.bohemiancoding.com/sketch -->
    <title>behance</title>
    <desc>Created with Sketch.</desc>
    <defs></defs>
    <g id="Page-1" stroke="none" stroke-width="1" fill="none" fill-rule="evenodd" sketch:type="MSPage">
        <path d="M20.556,14.975 C20.556,14.975 25.257,14.625 25.257,9.112 C25.257,3.598 21.411,0.906 16.538,0.906 L7.568,0.906 L7.305,0.906 L0.503,0.906 L0.503,31.721 L7.305,31.721 L7.568,31.721 L16.538,31.721 C16.538,31.721 26.326,32.03 26.326,22.625 C26.325,22.625 26.753,14.975 20.556,14.975 L20.556,14.975 Z M7.568,6.383 L15.383,6.383 L16.537,6.383 C16.537,6.383 18.717,6.383 18.717,9.588 C18.717,12.795 17.434,13.26 15.981,13.26 L7.567,13.26 L7.567,6.383 L7.568,6.383 Z M16.084,26.244 C15.847,26.25 15.646,26.244 15.511,26.244 L7.568,26.244 L7.568,18.01 L16.538,18.01 C16.538,18.01 19.787,17.967 19.787,22.24 C19.786,25.846 17.36,26.217 16.084,26.244 Z M39.382,8.746 C27.532,8.746 27.542,20.586 27.542,20.586 C27.542,20.586 26.73,32.365 39.382,32.365 C39.382,32.365 49.927,32.967 49.927,24.17 L44.503,24.17 C44.503,24.17 44.683,27.484 39.562,27.484 C39.562,27.484 34.14,27.845 34.14,22.121 L50.107,22.121 C50.106,22.121 51.854,8.746 39.382,8.746 Z M34.079,18.01 C34.079,18.01 34.741,13.26 39.501,13.26 C44.263,13.26 44.2,18.01 44.2,18.01 L34.079,18.01 Z M32.753,2.721 L45.464,2.721 L45.464,6.516 L32.753,6.516 L32.753,2.721 Z" id="behance" fill="#000000" sketch:type="MSShapeGroup"></path>
    </g>
</svg>