<!-- Generator: Adobe Illustrator 18.0.0, SVG Export Plug-In  -->
<svg version="1.1"
	 xmlns="http://www.w3.org/2000/svg" xmlns:xlink="http://www.w3.org/1999/xlink" xmlns:a="http://ns.adobe.com/AdobeSVGViewerExtensions/3.0/"
	 x="0px" y="0px" width="48px" height="48px" viewBox="0 0 48 48" enable-background="new 0 0 48 48" xml:space="preserve">
<defs>
</defs>
<g>
	<circle fill="#D1D0D0" cx="24" cy="24" r="24"/>
	<g>
		<g>
			<path fill="#FFFFFF" d="M38.7,18c0,0-0.3-2.1-1.2-3c-1.1-1.2-2.4-1.2-3-1.3C30.3,13.5,24,13.5,24,13.5h0c0,0-6.3,0-10.5,0.3
				c-0.6,0.1-1.9,0.1-3,1.3c-0.9,0.9-1.2,3-1.2,3S9,20.4,9,22.9v2.3C9,27.6,9.3,30,9.3,30s0.3,2.1,1.2,3c1.1,1.2,2.6,1.2,3.3,1.3
				c2.4,0.2,10.2,0.3,10.2,0.3s6.3,0,10.5-0.3c0.6-0.1,1.9-0.1,3-1.3c0.9-0.9,1.2-3,1.2-3s0.3-2.4,0.3-4.9v-2.3
				C39,20.4,38.7,18,38.7,18z M20.9,27.9l0-8.4l8.1,4.2L20.9,27.9z"/>
		</g>
	</g>
</g>
</svg>
