<?xml version="1.0" encoding="UTF-8" standalone="no"?>
<svg width="30px" height="18px" viewBox="0 0 30 18" version="1.1" xmlns="http://www.w3.org/2000/svg" xmlns:xlink="http://www.w3.org/1999/xlink" xmlns:sketch="http://www.bohemiancoding.com/sketch/ns">
    <!-- Generator: Sketch 3.3.3 (12081) - http://www.bohemiancoding.com/sketch -->
    <title>vkontakte</title>
    <desc>Created with Sketch.</desc>
    <defs></defs>
    <g id="Page-1" stroke="none" stroke-width="1" fill="none" fill-rule="evenodd" sketch:type="MSPage">
        <path d="M16,18 C17,18 17,16.559 17,16 C17,15 18,14 19,14 C20,14 21.715,15.715 23,17 C24,18 24,18 25,18 L28,18 C28,18 30,17.924 30,16 C30,15.375 29.315,14.315 27,12 C25,10 23.974,11.033 27,7 C28.843,4.544 30.184,2.319 29.954,1.677 C29.734,1.064 24.608,0.088 24,1 C22,4 21.633,4.735 21,6 C20,8 19.901,9 19,9 C18.091,9 18,7.059 18,6 C18,2.694 18.479,0.356 17,0 L14,0 C12.39,0 11,1 11,1 C11,1 9.759,1.968 10,2 C10.298,2.04 12,1.586 12,3 L12,5 C12,5 12.009,9 11,9 C10,9 8,5 6,2 C5.215,0.823 5,1 4,1 C2.928,1 2.001,1.042 1,1.042 C0,1.042 -0.128,1.679 0,2 C2,7 3.437,10.14 7.237,14.096 C10.722,17.725 13.05,17.918 15,18 C15.5,18.021 15,18 16,18 L16,18 Z" id="vkontakte" fill="#000000" sketch:type="MSShapeGroup"></path>
    </g>
</svg>