<svg version="1.1"
	 xmlns="http://www.w3.org/2000/svg" xmlns:xlink="http://www.w3.org/1999/xlink" xmlns:a="http://ns.adobe.com/AdobeSVGViewerExtensions/3.0/"
	 x="0px" y="0px" width="48px" height="48px" viewBox="0 0 48 48" enable-background="new 0 0 48 48" xml:space="preserve">
<defs>
</defs>
<g>
	<circle fill="#D1D0D0" cx="24" cy="24" r="24"/>
	<g>
		<path fill="#FFFFFF" d="M25.5,27.5c-0.8,0-1.5-2.2-2.4-6c-1-4-1-11.1-5.1-10.3C14.1,11.9,9,18,9,18l1.2,1.6c0,0,2.5-2,3.4-1
			s4,12.9,5.1,15.2c0.9,1.9,3.5,4.5,6.3,2.7c2.8-1.8,12.2-9.8,13.9-19.3c1.7-9.4-11.3-7.5-12.6,0.8c3.4-2.1,5.3,0.8,3.5,4.1
			C28,25.3,26.4,27.5,25.5,27.5z"/>
	</g>
</g>
</svg>
