<?xml version="1.0" encoding="UTF-8" standalone="no"?>
<svg width="22px" height="22px" viewBox="0 0 22 22" version="1.1" xmlns="http://www.w3.org/2000/svg" xmlns:xlink="http://www.w3.org/1999/xlink" xmlns:sketch="http://www.bohemiancoding.com/sketch/ns">
    <!-- Generator: Sketch 3.3.3 (12081) - http://www.bohemiancoding.com/sketch -->
    <title>arrow-right</title>
    <desc>Created with Sketch.</desc>
    <defs></defs>
    <g id="Page-1" stroke="none" stroke-width="1" fill="none" fill-rule="evenodd" sketch:type="MSPage">
        <path d="M10.8,21.6 C4.8,21.6 0,16.8 0,10.8 C0,4.8 4.8,0 10.8,0 C16.8,0 21.6,4.8 21.6,10.8 C21.6,16.8 16.8,21.6 10.8,21.6 L10.8,21.6 Z M10.8,1 C5.4,1 1,5.4 1,10.8 C1,16.2 5.4,20.6 10.8,20.6 C16.2,20.6 20.6,16.2 20.6,10.8 C20.6,5.4 16.2,1 10.8,1 Z M9.1,15.1 L8.6,14.5 L12.7,10.9 L8.6,7.2 L9.2,6.5 L14,10.9 L9.1,15.1 Z" id="arrow-right" fill="#000000" sketch:type="MSShapeGroup"></path>
    </g>
</svg>